<mxfile host="app.diagrams.net" modified="2022-10-02T16:17:17.351Z" agent="5.0 (Windows NT 10.0; Win64; x64) AppleWebKit/537.36 (KHTML, like Gecko) Chrome/105.0.0.0 Safari/537.36" etag="xG1d1DT5PMWCZI0mtiRc" version="20.4.0" type="github">
  <diagram id="mm-pI6zw8X0sC24JoM1l" name="Page-1">
    <mxGraphModel dx="820" dy="754" grid="1" gridSize="10" guides="1" tooltips="1" connect="1" arrows="1" fold="1" page="1" pageScale="1" pageWidth="850" pageHeight="1100" math="0" shadow="0">
      <root>
        <mxCell id="0" />
        <mxCell id="1" parent="0" />
        <mxCell id="IkjoUqAJZvpdG5Uk00sF-1" value="VPC" style="points=[[0,0],[0.25,0],[0.5,0],[0.75,0],[1,0],[1,0.25],[1,0.5],[1,0.75],[1,1],[0.75,1],[0.5,1],[0.25,1],[0,1],[0,0.75],[0,0.5],[0,0.25]];outlineConnect=0;gradientColor=none;html=1;whiteSpace=wrap;fontSize=12;fontStyle=0;container=1;pointerEvents=0;collapsible=0;recursiveResize=0;shape=mxgraph.aws4.group;grIcon=mxgraph.aws4.group_vpc;strokeColor=#248814;fillColor=none;verticalAlign=top;align=left;spacingLeft=30;fontColor=#AAB7B8;dashed=0;" vertex="1" parent="1">
          <mxGeometry x="25" y="220" width="800" height="710" as="geometry" />
        </mxCell>
        <mxCell id="IkjoUqAJZvpdG5Uk00sF-3" value="Public subnet" style="points=[[0,0],[0.25,0],[0.5,0],[0.75,0],[1,0],[1,0.25],[1,0.5],[1,0.75],[1,1],[0.75,1],[0.5,1],[0.25,1],[0,1],[0,0.75],[0,0.5],[0,0.25]];outlineConnect=0;gradientColor=none;html=1;whiteSpace=wrap;fontSize=12;fontStyle=0;container=1;pointerEvents=0;collapsible=0;recursiveResize=0;shape=mxgraph.aws4.group;grIcon=mxgraph.aws4.group_security_group;grStroke=0;strokeColor=#248814;fillColor=#E9F3E6;verticalAlign=top;align=left;spacingLeft=30;fontColor=#248814;dashed=0;" vertex="1" parent="IkjoUqAJZvpdG5Uk00sF-1">
          <mxGeometry x="10" y="100" width="340" height="280" as="geometry" />
        </mxCell>
        <mxCell id="IkjoUqAJZvpdG5Uk00sF-14" value="" style="sketch=0;points=[[0,0,0],[0.25,0,0],[0.5,0,0],[0.75,0,0],[1,0,0],[0,1,0],[0.25,1,0],[0.5,1,0],[0.75,1,0],[1,1,0],[0,0.25,0],[0,0.5,0],[0,0.75,0],[1,0.25,0],[1,0.5,0],[1,0.75,0]];outlineConnect=0;fontColor=#232F3E;gradientColor=#F78E04;gradientDirection=north;fillColor=#D05C17;strokeColor=#ffffff;dashed=0;verticalLabelPosition=bottom;verticalAlign=top;align=center;html=1;fontSize=12;fontStyle=0;aspect=fixed;shape=mxgraph.aws4.resourceIcon;resIcon=mxgraph.aws4.auto_scaling2;" vertex="1" parent="IkjoUqAJZvpdG5Uk00sF-3">
          <mxGeometry x="225" y="80" width="78" height="78" as="geometry" />
        </mxCell>
        <mxCell id="IkjoUqAJZvpdG5Uk00sF-4" value="Public subnet" style="points=[[0,0],[0.25,0],[0.5,0],[0.75,0],[1,0],[1,0.25],[1,0.5],[1,0.75],[1,1],[0.75,1],[0.5,1],[0.25,1],[0,1],[0,0.75],[0,0.5],[0,0.25]];outlineConnect=0;gradientColor=none;html=1;whiteSpace=wrap;fontSize=12;fontStyle=0;container=1;pointerEvents=0;collapsible=0;recursiveResize=0;shape=mxgraph.aws4.group;grIcon=mxgraph.aws4.group_security_group;grStroke=0;strokeColor=#248814;fillColor=#E9F3E6;verticalAlign=top;align=left;spacingLeft=30;fontColor=#248814;dashed=0;" vertex="1" parent="IkjoUqAJZvpdG5Uk00sF-1">
          <mxGeometry x="370" y="100" width="410" height="280" as="geometry" />
        </mxCell>
        <mxCell id="IkjoUqAJZvpdG5Uk00sF-15" value="" style="sketch=0;points=[[0,0,0],[0.25,0,0],[0.5,0,0],[0.75,0,0],[1,0,0],[0,1,0],[0.25,1,0],[0.5,1,0],[0.75,1,0],[1,1,0],[0,0.25,0],[0,0.5,0],[0,0.75,0],[1,0.25,0],[1,0.5,0],[1,0.75,0]];outlineConnect=0;fontColor=#232F3E;gradientColor=#F78E04;gradientDirection=north;fillColor=#D05C17;strokeColor=#ffffff;dashed=0;verticalLabelPosition=bottom;verticalAlign=top;align=center;html=1;fontSize=12;fontStyle=0;aspect=fixed;shape=mxgraph.aws4.resourceIcon;resIcon=mxgraph.aws4.auto_scaling2;" vertex="1" parent="IkjoUqAJZvpdG5Uk00sF-4">
          <mxGeometry x="195" y="80" width="78" height="78" as="geometry" />
        </mxCell>
        <mxCell id="IkjoUqAJZvpdG5Uk00sF-5" value="Private subnet" style="points=[[0,0],[0.25,0],[0.5,0],[0.75,0],[1,0],[1,0.25],[1,0.5],[1,0.75],[1,1],[0.75,1],[0.5,1],[0.25,1],[0,1],[0,0.75],[0,0.5],[0,0.25]];outlineConnect=0;gradientColor=none;html=1;whiteSpace=wrap;fontSize=12;fontStyle=0;container=1;pointerEvents=0;collapsible=0;recursiveResize=0;shape=mxgraph.aws4.group;grIcon=mxgraph.aws4.group_security_group;grStroke=0;strokeColor=#147EBA;fillColor=#E6F2F8;verticalAlign=top;align=left;spacingLeft=30;fontColor=#147EBA;dashed=0;" vertex="1" parent="IkjoUqAJZvpdG5Uk00sF-1">
          <mxGeometry x="10" y="400" width="340" height="300" as="geometry" />
        </mxCell>
        <mxCell id="IkjoUqAJZvpdG5Uk00sF-17" value="" style="sketch=0;points=[[0,0,0],[0.25,0,0],[0.5,0,0],[0.75,0,0],[1,0,0],[0,1,0],[0.25,1,0],[0.5,1,0],[0.75,1,0],[1,1,0],[0,0.25,0],[0,0.5,0],[0,0.75,0],[1,0.25,0],[1,0.5,0],[1,0.75,0]];outlineConnect=0;fontColor=#232F3E;gradientColor=#4D72F3;gradientDirection=north;fillColor=#3334B9;strokeColor=#ffffff;dashed=0;verticalLabelPosition=bottom;verticalAlign=top;align=center;html=1;fontSize=12;fontStyle=0;aspect=fixed;shape=mxgraph.aws4.resourceIcon;resIcon=mxgraph.aws4.database;" vertex="1" parent="IkjoUqAJZvpdG5Uk00sF-5">
          <mxGeometry x="225" y="70" width="78" height="78" as="geometry" />
        </mxCell>
        <mxCell id="IkjoUqAJZvpdG5Uk00sF-6" value="" style="sketch=0;points=[[0,0,0],[0.25,0,0],[0.5,0,0],[0.75,0,0],[1,0,0],[0,1,0],[0.25,1,0],[0.5,1,0],[0.75,1,0],[1,1,0],[0,0.25,0],[0,0.5,0],[0,0.75,0],[1,0.25,0],[1,0.5,0],[1,0.75,0]];outlineConnect=0;fontColor=#232F3E;gradientColor=#F78E04;gradientDirection=north;fillColor=#D05C17;strokeColor=#ffffff;dashed=0;verticalLabelPosition=bottom;verticalAlign=top;align=center;html=1;fontSize=12;fontStyle=0;aspect=fixed;shape=mxgraph.aws4.resourceIcon;resIcon=mxgraph.aws4.lambda;" vertex="1" parent="IkjoUqAJZvpdG5Uk00sF-1">
          <mxGeometry x="95" y="10" width="78" height="78" as="geometry" />
        </mxCell>
        <mxCell id="IkjoUqAJZvpdG5Uk00sF-7" value="Private subnet" style="points=[[0,0],[0.25,0],[0.5,0],[0.75,0],[1,0],[1,0.25],[1,0.5],[1,0.75],[1,1],[0.75,1],[0.5,1],[0.25,1],[0,1],[0,0.75],[0,0.5],[0,0.25]];outlineConnect=0;gradientColor=none;html=1;whiteSpace=wrap;fontSize=12;fontStyle=0;container=1;pointerEvents=0;collapsible=0;recursiveResize=0;shape=mxgraph.aws4.group;grIcon=mxgraph.aws4.group_security_group;grStroke=0;strokeColor=#147EBA;fillColor=#E6F2F8;verticalAlign=top;align=left;spacingLeft=30;fontColor=#147EBA;dashed=0;" vertex="1" parent="IkjoUqAJZvpdG5Uk00sF-1">
          <mxGeometry x="370" y="400" width="410" height="300" as="geometry" />
        </mxCell>
        <mxCell id="IkjoUqAJZvpdG5Uk00sF-16" value="" style="sketch=0;points=[[0,0,0],[0.25,0,0],[0.5,0,0],[0.75,0,0],[1,0,0],[0,1,0],[0.25,1,0],[0.5,1,0],[0.75,1,0],[1,1,0],[0,0.25,0],[0,0.5,0],[0,0.75,0],[1,0.25,0],[1,0.5,0],[1,0.75,0]];outlineConnect=0;fontColor=#232F3E;gradientColor=#4D72F3;gradientDirection=north;fillColor=#3334B9;strokeColor=#ffffff;dashed=0;verticalLabelPosition=bottom;verticalAlign=top;align=center;html=1;fontSize=12;fontStyle=0;aspect=fixed;shape=mxgraph.aws4.resourceIcon;resIcon=mxgraph.aws4.database;" vertex="1" parent="IkjoUqAJZvpdG5Uk00sF-7">
          <mxGeometry x="185" y="60" width="78" height="78" as="geometry" />
        </mxCell>
        <mxCell id="IkjoUqAJZvpdG5Uk00sF-19" style="edgeStyle=orthogonalEdgeStyle;rounded=0;orthogonalLoop=1;jettySize=auto;html=1;" edge="1" parent="IkjoUqAJZvpdG5Uk00sF-7" source="IkjoUqAJZvpdG5Uk00sF-18" target="IkjoUqAJZvpdG5Uk00sF-16">
          <mxGeometry relative="1" as="geometry">
            <Array as="points">
              <mxPoint x="69" y="158" />
              <mxPoint x="128" y="158" />
              <mxPoint x="128" y="90" />
            </Array>
          </mxGeometry>
        </mxCell>
        <mxCell id="IkjoUqAJZvpdG5Uk00sF-18" value="" style="sketch=0;outlineConnect=0;fontColor=#232F3E;gradientColor=none;fillColor=#2E27AD;strokeColor=none;dashed=0;verticalLabelPosition=bottom;verticalAlign=top;align=center;html=1;fontSize=12;fontStyle=0;aspect=fixed;pointerEvents=1;shape=mxgraph.aws4.rds_multi_az_db_cluster;" vertex="1" parent="IkjoUqAJZvpdG5Uk00sF-7">
          <mxGeometry x="30" y="60" width="78" height="78" as="geometry" />
        </mxCell>
        <mxCell id="IkjoUqAJZvpdG5Uk00sF-25" style="edgeStyle=orthogonalEdgeStyle;rounded=0;orthogonalLoop=1;jettySize=auto;html=1;" edge="1" parent="IkjoUqAJZvpdG5Uk00sF-7" source="IkjoUqAJZvpdG5Uk00sF-21" target="IkjoUqAJZvpdG5Uk00sF-16">
          <mxGeometry relative="1" as="geometry" />
        </mxCell>
        <mxCell id="IkjoUqAJZvpdG5Uk00sF-21" value="" style="sketch=0;outlineConnect=0;fontColor=#232F3E;gradientColor=none;fillColor=#2E27AD;strokeColor=none;dashed=0;verticalLabelPosition=bottom;verticalAlign=top;align=center;html=1;fontSize=12;fontStyle=0;aspect=fixed;pointerEvents=1;shape=mxgraph.aws4.database_migration_workflow_job;" vertex="1" parent="IkjoUqAJZvpdG5Uk00sF-7">
          <mxGeometry x="315" y="170" width="50" height="78" as="geometry" />
        </mxCell>
        <mxCell id="IkjoUqAJZvpdG5Uk00sF-12" style="edgeStyle=orthogonalEdgeStyle;rounded=0;orthogonalLoop=1;jettySize=auto;html=1;" edge="1" parent="IkjoUqAJZvpdG5Uk00sF-1" source="IkjoUqAJZvpdG5Uk00sF-9" target="IkjoUqAJZvpdG5Uk00sF-14">
          <mxGeometry relative="1" as="geometry" />
        </mxCell>
        <mxCell id="IkjoUqAJZvpdG5Uk00sF-13" style="edgeStyle=orthogonalEdgeStyle;rounded=0;orthogonalLoop=1;jettySize=auto;html=1;entryX=0.5;entryY=0;entryDx=0;entryDy=0;entryPerimeter=0;" edge="1" parent="IkjoUqAJZvpdG5Uk00sF-1" source="IkjoUqAJZvpdG5Uk00sF-9" target="IkjoUqAJZvpdG5Uk00sF-15">
          <mxGeometry relative="1" as="geometry">
            <mxPoint x="564" y="180" as="targetPoint" />
          </mxGeometry>
        </mxCell>
        <mxCell id="IkjoUqAJZvpdG5Uk00sF-9" value="" style="sketch=0;points=[[0,0,0],[0.25,0,0],[0.5,0,0],[0.75,0,0],[1,0,0],[0,1,0],[0.25,1,0],[0.5,1,0],[0.75,1,0],[1,1,0],[0,0.25,0],[0,0.5,0],[0,0.75,0],[1,0.25,0],[1,0.5,0],[1,0.75,0]];outlineConnect=0;fontColor=#232F3E;gradientColor=#945DF2;gradientDirection=north;fillColor=#5A30B5;strokeColor=#ffffff;dashed=0;verticalLabelPosition=bottom;verticalAlign=top;align=center;html=1;fontSize=12;fontStyle=0;aspect=fixed;shape=mxgraph.aws4.resourceIcon;resIcon=mxgraph.aws4.elastic_load_balancing;" vertex="1" parent="IkjoUqAJZvpdG5Uk00sF-1">
          <mxGeometry x="565" y="10" width="78" height="78" as="geometry" />
        </mxCell>
        <mxCell id="IkjoUqAJZvpdG5Uk00sF-20" style="edgeStyle=orthogonalEdgeStyle;rounded=0;orthogonalLoop=1;jettySize=auto;html=1;" edge="1" parent="IkjoUqAJZvpdG5Uk00sF-1" source="IkjoUqAJZvpdG5Uk00sF-18" target="IkjoUqAJZvpdG5Uk00sF-17">
          <mxGeometry relative="1" as="geometry" />
        </mxCell>
        <mxCell id="IkjoUqAJZvpdG5Uk00sF-23" style="edgeStyle=orthogonalEdgeStyle;rounded=0;orthogonalLoop=1;jettySize=auto;html=1;" edge="1" parent="IkjoUqAJZvpdG5Uk00sF-1" source="IkjoUqAJZvpdG5Uk00sF-14" target="IkjoUqAJZvpdG5Uk00sF-18">
          <mxGeometry relative="1" as="geometry" />
        </mxCell>
        <mxCell id="IkjoUqAJZvpdG5Uk00sF-24" style="edgeStyle=orthogonalEdgeStyle;rounded=0;orthogonalLoop=1;jettySize=auto;html=1;" edge="1" parent="IkjoUqAJZvpdG5Uk00sF-1" source="IkjoUqAJZvpdG5Uk00sF-15" target="IkjoUqAJZvpdG5Uk00sF-18">
          <mxGeometry relative="1" as="geometry" />
        </mxCell>
        <mxCell id="IkjoUqAJZvpdG5Uk00sF-8" value="" style="sketch=0;points=[[0,0,0],[0.25,0,0],[0.5,0,0],[0.75,0,0],[1,0,0],[0,1,0],[0.25,1,0],[0.5,1,0],[0.75,1,0],[1,1,0],[0,0.25,0],[0,0.5,0],[0,0.75,0],[1,0.25,0],[1,0.5,0],[1,0.75,0]];outlineConnect=0;fontColor=#232F3E;gradientColor=#945DF2;gradientDirection=north;fillColor=#5A30B5;strokeColor=#ffffff;dashed=0;verticalLabelPosition=bottom;verticalAlign=top;align=center;html=1;fontSize=12;fontStyle=0;aspect=fixed;shape=mxgraph.aws4.resourceIcon;resIcon=mxgraph.aws4.api_gateway;" vertex="1" parent="1">
          <mxGeometry x="210" y="80" width="78" height="78" as="geometry" />
        </mxCell>
        <mxCell id="IkjoUqAJZvpdG5Uk00sF-27" style="edgeStyle=orthogonalEdgeStyle;rounded=0;orthogonalLoop=1;jettySize=auto;html=1;" edge="1" parent="1" source="IkjoUqAJZvpdG5Uk00sF-26" target="IkjoUqAJZvpdG5Uk00sF-21">
          <mxGeometry relative="1" as="geometry" />
        </mxCell>
        <mxCell id="IkjoUqAJZvpdG5Uk00sF-28" style="edgeStyle=orthogonalEdgeStyle;rounded=0;orthogonalLoop=1;jettySize=auto;html=1;" edge="1" parent="1" source="IkjoUqAJZvpdG5Uk00sF-26">
          <mxGeometry relative="1" as="geometry">
            <mxPoint x="480" y="1040" as="targetPoint" />
          </mxGeometry>
        </mxCell>
        <mxCell id="IkjoUqAJZvpdG5Uk00sF-26" value="" style="sketch=0;points=[[0,0,0],[0.25,0,0],[0.5,0,0],[0.75,0,0],[1,0,0],[0,1,0],[0.25,1,0],[0.5,1,0],[0.75,1,0],[1,1,0],[0,0.25,0],[0,0.5,0],[0,0.75,0],[1,0.25,0],[1,0.5,0],[1,0.75,0]];outlineConnect=0;fontColor=#232F3E;gradientColor=#945DF2;gradientDirection=north;fillColor=#5A30B5;strokeColor=#ffffff;dashed=0;verticalLabelPosition=bottom;verticalAlign=top;align=center;html=1;fontSize=12;fontStyle=0;aspect=fixed;shape=mxgraph.aws4.resourceIcon;resIcon=mxgraph.aws4.site_to_site_vpn;" vertex="1" parent="1">
          <mxGeometry x="700" y="950" width="78" height="78" as="geometry" />
        </mxCell>
      </root>
    </mxGraphModel>
  </diagram>
</mxfile>
